<svg width="793" height="521" viewBox="0 0 793 521" fill="none" xmlns="http://www.w3.org/2000/svg">
<path fill-rule="evenodd" clip-rule="evenodd" d="M140.951 17.7895L136.41 38.0462L80.8601 25.5938L68.4298 81.0444L48.1731 76.5035L65.1132 0.934717L65.3507 0.987967L65.3818 0.849491L140.951 17.7895ZM659.659 505.591L663.732 489.867L706.851 501.037L718.001 457.994L733.725 462.068L718.529 520.726L718.345 520.678L718.317 520.786L659.659 505.591ZM8.68774 406.805L0.267299 469.24L-1.26893e-05 471.222L62.4347 479.643L62.702 477.661L2.24935 469.508L10.6698 407.073L8.68774 406.805ZM791.685 147.356L781.106 209.462L779.134 209.126L789.713 147.02L729.579 136.777L729.915 134.805L792.021 145.385L791.685 147.356Z" fill="#A6B9FF"/>
</svg>
