<svg width="602" height="180" viewBox="0 0 602 180" fill="none" xmlns="http://www.w3.org/2000/svg">
<path fill-rule="evenodd" clip-rule="evenodd" d="M0 0H227H234H381V2H230.075L206.664 13.9286L0 15V0ZM83.2371 23.8689C48.9137 22.536 39.4453 22.7989 37.3333 23L0 23V179.857H37.3333V127.44C37.3333 127.44 66.3774 127.965 80.6233 126.915C93.0753 125.996 101.899 121.059 108.489 117.373C109.438 116.842 110.341 116.337 111.201 115.873C135.534 95.3424 132.834 46.4327 106.98 32.2812C103.343 29.3135 98.7532 27.5271 94.3172 25.9697C90.8448 24.7506 87.1432 24.0206 83.2371 23.8689ZM37.3333 93.2671H72.6845C96.9555 90.1126 93.7897 59.0942 72.6845 56.9913H37.3333V93.2671ZM432 101.429C432 144.744 396.183 179.857 352 179.857C307.817 179.857 272 144.744 272 101.429C272 58.1137 307.817 23 352 23C396.183 23 432 58.1137 432 101.429ZM394.767 101.429C394.767 124.584 375.62 143.356 352 143.356C328.38 143.356 309.233 124.584 309.233 101.429C309.233 78.2728 328.38 59.5013 352 59.5013C375.62 59.5013 394.767 78.2728 394.767 101.429ZM538.667 108.371L486.538 23H442.667L502.022 113V179.857H538.667V108.371ZM598.881 23H594.286H580.256H575.661H558.555L551.12 34.8642L549.123 38.0512L543.025 47.7817L541.027 50.9687L534.929 60.6991L533.333 63.2453H534.258H548.287H552.882H575.369L585.739 47.3612L587.858 44.1154L594.327 34.2055L596.446 30.9597L601.642 23H598.881ZM149.333 23V179.857H250.667V147.05H186.749V54H210V46H186.749V43H221V35H186.749V23H149.333Z" fill="#3E53FF"/>
</svg>
