<svg width="40" height="68" viewBox="0 0 40 68" fill="none" xmlns="http://www.w3.org/2000/svg">
<mask id="mask0_650_195" style="mask-type:alpha" maskUnits="userSpaceOnUse" x="0" y="28" width="40" height="40">
<rect y="68" width="40" height="40" transform="rotate(-90 0 68)" fill="#D9D9D9"/>
</mask>
<g mask="url(#mask0_650_195)">
<path d="M36.6663 51.3333L19.9997 68L3.33301 51.3333L6.29134 48.375L19.9997 62.0833L33.708 48.375L36.6663 51.3333Z" fill="#1C1B1F"/>
</g>
<mask id="mask1_650_195" style="mask-type:alpha" maskUnits="userSpaceOnUse" x="0" y="14" width="40" height="40">
<rect y="54" width="40" height="40" transform="rotate(-90 0 54)" fill="#D9D9D9"/>
</mask>
<g mask="url(#mask1_650_195)">
<path d="M36.6663 37.3333L19.9997 54L3.33301 37.3333L6.29134 34.375L19.9997 48.0833L33.708 34.375L36.6663 37.3333Z" fill="#5D6DA5"/>
</g>
<mask id="mask2_650_195" style="mask-type:alpha" maskUnits="userSpaceOnUse" x="0" y="0" width="40" height="40">
<rect y="40" width="40" height="40" transform="rotate(-90 0 40)" fill="#D9D9D9"/>
</mask>
<g mask="url(#mask2_650_195)">
<path d="M36.6663 23.3333L19.9997 40L3.33301 23.3333L6.29134 20.375L19.9997 34.0833L33.708 20.375L36.6663 23.3333Z" fill="#C3D1FF"/>
</g>
</svg>
