<svg width="1920" height="1080" viewBox="0 0 1920 1080" fill="none" xmlns="http://www.w3.org/2000/svg">
<g clip-path="url(#clip0_683_194)">
<rect width="1920" height="1080" fill="white"/>
<path opacity="0.5" d="M70.574 468.85L133.483 473.243L132.147 492.384L92.9296 489.646L91.7846 506.043L127.136 508.512L125.799 527.653L90.4479 525.184L87.9619 560.785L64.2696 559.13L70.574 468.85ZM142.898 473.901L181.304 476.583C188.038 477.053 193.813 478.688 198.63 481.489C203.488 484.293 207.127 488.097 209.549 492.902C212.014 497.669 213.029 503.17 212.594 509.405C212.156 515.681 210.366 520.965 207.227 525.257C204.131 529.51 199.926 532.599 194.613 534.525C189.299 536.452 183.192 537.174 176.292 536.692L152.912 535.059L154.209 516.48L172.976 517.79C176.093 518.008 178.697 517.814 180.786 517.208C182.877 516.56 184.52 515.464 185.714 513.918C186.953 512.334 187.662 510.253 187.842 507.676C188.025 505.057 187.613 502.878 186.607 501.137C185.645 499.357 184.154 497.979 182.134 497.003C180.114 496.026 177.586 495.432 174.552 495.22L165.262 494.571L160.286 565.835L136.593 564.181L142.898 473.901ZM211.411 569.405L185.537 567.599L166.477 524.729L191.79 526.497L211.411 569.405ZM309.208 530.875C308.532 540.559 306.036 548.78 301.722 555.538C297.452 562.257 291.865 567.192 284.962 570.344C278.101 573.499 270.534 574.787 262.263 574.21C253.991 573.632 246.677 571.304 240.321 567.227C233.964 563.149 229.119 557.464 225.786 550.173C222.494 542.884 221.185 534.418 221.858 524.775C222.54 515.007 225.016 506.764 229.286 500.045C233.598 493.329 239.183 488.414 246.042 485.301C252.903 482.146 260.47 480.858 268.741 481.435C277.013 482.013 284.327 484.341 290.683 488.418C297.084 492.457 301.932 498.101 305.227 505.348C308.563 512.598 309.89 521.107 309.208 530.875ZM284.83 529.172C285.216 523.644 284.794 518.916 283.565 514.987C282.377 511.061 280.397 508.02 277.624 505.864C274.895 503.668 271.452 502.425 267.296 502.135C263.139 501.845 259.557 502.597 256.55 504.392C253.545 506.145 251.162 508.882 249.398 512.601C247.676 516.324 246.622 520.949 246.236 526.477C245.85 532.005 246.251 536.732 247.439 540.658C248.668 544.586 250.647 547.648 253.376 549.844C256.107 551.998 259.552 553.22 263.708 553.51C267.865 553.8 271.445 553.069 274.45 551.315C277.498 549.523 279.884 546.766 281.606 543.044C283.369 539.324 284.444 534.7 284.83 529.172ZM395.338 582.249L375.449 580.86L345.369 529.829L344.745 529.785L341.345 578.479L317.653 576.824L323.957 486.544L344.22 487.959L373.811 538.832L374.559 538.884L377.95 490.315L401.643 491.969L395.338 582.249ZM411.182 492.635L489.055 498.073L487.718 517.214L460.472 515.312L455.504 586.451L432.186 584.823L437.154 513.683L409.845 511.776L411.182 492.635ZM538.592 555.789L496.382 552.842L497.632 534.948L539.842 537.896L538.592 555.789ZM556.765 502.802L621.233 507.304L619.896 526.444L579.121 523.597L577.976 539.995L615.447 542.611L614.11 561.752L576.639 559.135L575.489 575.595L616.078 578.43L614.742 597.571L550.461 593.082L556.765 502.802ZM705.084 603.879L685.195 602.491L655.114 551.459L654.491 551.415L651.09 600.109L627.398 598.454L633.703 508.174L653.966 509.589L683.556 560.462L684.304 560.514L687.696 511.945L711.388 513.599L705.084 603.879ZM727.031 605.412L728.441 585.211L752.134 586.866C756.997 587.205 761.063 586.696 764.332 585.337C767.643 583.981 770.257 581.532 772.175 577.99C774.094 574.449 775.267 569.602 775.697 563.45C776.132 557.215 775.646 552.211 774.239 548.437C772.832 544.663 770.54 541.893 767.364 540.126C764.188 538.358 760.085 537.299 755.055 536.948L731.55 535.307L732.961 515.106L757.588 516.825C766.857 517.473 774.753 519.841 781.276 523.93C787.84 528.023 792.694 533.583 795.837 540.61C799.022 547.641 800.289 555.811 799.639 565.122C798.988 574.433 796.598 582.348 792.467 588.868C788.378 595.39 782.819 600.223 775.792 603.366C768.805 606.512 760.74 607.766 751.596 607.127L727.031 605.412ZM740.997 606.387L717.304 604.733L723.609 514.453L747.301 516.107L740.997 606.387Z" fill="#C0CEFF"/>
<path opacity="0.5" d="M81.574 359.85L144.483 364.243L143.147 383.384L103.93 380.646L102.785 397.043L138.136 399.512L136.799 418.653L101.448 416.184L98.9619 451.785L75.2696 450.13L81.574 359.85ZM153.898 364.901L192.304 367.583C199.038 368.053 204.813 369.688 209.63 372.489C214.488 375.293 218.127 379.097 220.549 383.902C223.014 388.669 224.029 394.17 223.594 400.405C223.156 406.681 221.366 411.965 218.227 416.257C215.131 420.51 210.926 423.599 205.613 425.525C200.299 427.452 194.192 428.174 187.292 427.692L163.912 426.059L165.209 407.48L183.976 408.79C187.093 409.008 189.697 408.814 191.786 408.208C193.877 407.56 195.52 406.464 196.714 404.918C197.953 403.334 198.662 401.253 198.842 398.676C199.025 396.057 198.613 393.878 197.607 392.137C196.645 390.357 195.154 388.979 193.134 388.003C191.114 387.026 188.586 386.432 185.552 386.22L176.262 385.571L171.286 456.835L147.593 455.181L153.898 364.901ZM222.411 460.405L196.537 458.599L177.477 415.729L202.79 417.497L222.411 460.405ZM320.208 421.875C319.532 431.559 317.036 439.78 312.722 446.538C308.452 453.257 302.865 458.192 295.962 461.344C289.101 464.499 281.534 465.787 273.263 465.21C264.991 464.632 257.677 462.304 251.321 458.227C244.964 454.149 240.119 448.464 236.786 441.173C233.494 433.884 232.185 425.418 232.858 415.775C233.54 406.007 236.016 397.764 240.286 391.045C244.598 384.329 250.183 379.414 257.042 376.301C263.903 373.146 271.47 371.858 279.741 372.435C288.013 373.013 295.327 375.341 301.683 379.418C308.084 383.457 312.932 389.101 316.227 396.348C319.563 403.598 320.89 412.107 320.208 421.875ZM295.83 420.172C296.216 414.644 295.794 409.916 294.565 405.987C293.377 402.061 291.397 399.02 288.624 396.864C285.895 394.668 282.452 393.425 278.296 393.135C274.139 392.845 270.557 393.597 267.55 395.392C264.545 397.145 262.162 399.882 260.398 403.601C258.676 407.324 257.622 411.949 257.236 417.477C256.85 423.005 257.251 427.732 258.439 431.658C259.668 435.586 261.647 438.648 264.376 440.844C267.107 442.998 270.552 444.22 274.708 444.51C278.865 444.8 282.445 444.069 285.45 442.315C288.498 440.523 290.884 437.766 292.606 434.044C294.369 430.324 295.444 425.7 295.83 420.172ZM406.338 473.249L386.449 471.86L356.369 420.829L355.745 420.785L352.345 469.479L328.653 467.824L334.957 377.544L355.22 378.959L384.811 429.832L385.559 429.884L388.95 381.315L412.643 382.969L406.338 473.249ZM422.182 383.635L500.055 389.073L498.718 408.214L471.472 406.312L466.504 477.451L443.186 475.823L448.154 404.683L420.845 402.776L422.182 383.635ZM549.592 446.789L507.382 443.842L508.632 425.948L550.842 428.896L549.592 446.789ZM567.765 393.802L632.233 398.304L630.896 417.444L590.121 414.597L588.976 430.995L626.447 433.611L625.11 452.752L587.639 450.135L586.489 466.595L627.078 469.43L625.742 488.571L561.461 484.082L567.765 393.802ZM716.084 494.879L696.195 493.491L666.114 442.459L665.491 442.415L662.09 491.109L638.398 489.454L644.703 399.174L664.966 400.589L694.556 451.462L695.304 451.514L698.696 402.945L722.388 404.599L716.084 494.879ZM738.031 496.412L739.441 476.211L763.134 477.866C767.997 478.205 772.063 477.696 775.332 476.337C778.643 474.981 781.257 472.532 783.175 468.99C785.094 465.449 786.267 460.602 786.697 454.45C787.132 448.215 786.646 443.211 785.239 439.437C783.832 435.663 781.54 432.893 778.364 431.126C775.188 429.358 771.085 428.299 766.055 427.948L742.55 426.307L743.961 406.106L768.588 407.825C777.857 408.473 785.753 410.841 792.276 414.93C798.84 419.023 803.694 424.583 806.837 431.61C810.022 438.641 811.289 446.811 810.639 456.122C809.988 465.433 807.598 473.348 803.467 479.868C799.378 486.39 793.819 491.223 786.792 494.366C779.805 497.512 771.74 498.766 762.596 498.127L738.031 496.412ZM751.997 497.387L728.304 495.733L734.609 405.453L758.301 407.107L751.997 497.387Z" fill="#C7DFFF"/>
<path opacity="0.5" d="M87.574 247.85L150.483 252.243L149.147 271.384L109.93 268.646L108.785 285.043L144.136 287.512L142.799 306.653L107.448 304.184L104.962 339.785L81.2696 338.13L87.574 247.85ZM159.898 252.901L198.304 255.583C205.038 256.053 210.813 257.688 215.63 260.489C220.488 263.293 224.127 267.097 226.549 271.902C229.014 276.669 230.029 282.17 229.594 288.405C229.156 294.681 227.366 299.965 224.227 304.257C221.131 308.51 216.926 311.599 211.613 313.525C206.299 315.452 200.192 316.174 193.292 315.692L169.912 314.059L171.209 295.48L189.976 296.79C193.093 297.008 195.697 296.814 197.786 296.208C199.877 295.56 201.52 294.464 202.714 292.918C203.953 291.334 204.662 289.253 204.842 286.676C205.025 284.057 204.613 281.878 203.607 280.137C202.645 278.357 201.154 276.979 199.134 276.003C197.114 275.026 194.586 274.432 191.552 274.22L182.262 273.571L177.286 344.835L153.593 343.181L159.898 252.901ZM228.411 348.405L202.537 346.599L183.477 303.729L208.79 305.497L228.411 348.405ZM326.208 309.875C325.532 319.559 323.036 327.78 318.722 334.538C314.452 341.257 308.865 346.192 301.962 349.344C295.101 352.499 287.534 353.787 279.263 353.21C270.991 352.632 263.677 350.304 257.321 346.227C250.964 342.149 246.119 336.464 242.786 329.173C239.494 321.884 238.185 313.418 238.858 303.775C239.54 294.007 242.016 285.764 246.286 279.045C250.598 272.329 256.183 267.414 263.042 264.301C269.903 261.146 277.47 259.858 285.741 260.435C294.013 261.013 301.327 263.341 307.683 267.418C314.084 271.457 318.932 277.101 322.227 284.348C325.563 291.598 326.89 300.107 326.208 309.875ZM301.83 308.172C302.216 302.644 301.794 297.916 300.565 293.987C299.377 290.061 297.397 287.02 294.624 284.864C291.895 282.668 288.452 281.425 284.296 281.135C280.139 280.845 276.557 281.597 273.55 283.392C270.545 285.145 268.162 287.882 266.398 291.601C264.676 295.324 263.622 299.949 263.236 305.477C262.85 311.005 263.251 315.732 264.439 319.658C265.668 323.586 267.647 326.648 270.376 328.844C273.107 330.998 276.552 332.22 280.708 332.51C284.865 332.8 288.445 332.069 291.45 330.315C294.498 328.523 296.884 325.766 298.606 322.044C300.369 318.324 301.444 313.7 301.83 308.172ZM412.338 361.249L392.449 359.86L362.369 308.829L361.745 308.785L358.345 357.479L334.653 355.824L340.957 265.544L361.22 266.959L390.811 317.832L391.559 317.884L394.95 269.315L418.643 270.969L412.338 361.249ZM428.182 271.635L506.055 277.073L504.718 296.214L477.472 294.312L472.504 365.451L449.186 363.823L454.154 292.683L426.845 290.776L428.182 271.635ZM555.592 334.789L513.382 331.842L514.632 313.948L556.842 316.896L555.592 334.789ZM573.765 281.802L638.233 286.304L636.896 305.444L596.121 302.597L594.976 318.995L632.447 321.611L631.11 340.752L593.639 338.135L592.489 354.595L633.078 357.43L631.742 376.571L567.461 372.082L573.765 281.802ZM722.084 382.879L702.195 381.491L672.114 330.459L671.491 330.415L668.09 379.109L644.398 377.454L650.703 287.174L670.966 288.589L700.556 339.462L701.304 339.514L704.696 290.945L728.388 292.599L722.084 382.879ZM744.031 384.412L745.441 364.211L769.134 365.866C773.997 366.205 778.063 365.696 781.332 364.337C784.643 362.981 787.257 360.532 789.175 356.99C791.094 353.449 792.267 348.602 792.697 342.45C793.132 336.215 792.646 331.211 791.239 327.437C789.832 323.663 787.54 320.893 784.364 319.126C781.188 317.358 777.085 316.299 772.055 315.948L748.55 314.307L749.961 294.106L774.588 295.825C783.857 296.473 791.753 298.841 798.276 302.93C804.84 307.023 809.694 312.583 812.837 319.61C816.022 326.641 817.289 334.811 816.639 344.122C815.988 353.433 813.598 361.348 809.467 367.868C805.378 374.39 799.819 379.223 792.792 382.366C785.805 385.512 777.74 386.766 768.596 386.127L744.031 384.412ZM757.997 385.387L734.304 383.733L740.609 293.453L764.301 295.107L757.997 385.387Z" fill="#DDECFF"/>
<path opacity="0.5" d="M59.574 571.85L122.483 576.243L121.147 595.384L81.9296 592.646L80.7846 609.043L116.136 611.512L114.799 630.653L79.4479 628.184L76.9619 663.785L53.2696 662.13L59.574 571.85ZM131.898 576.901L170.304 579.583C177.038 580.053 182.813 581.688 187.63 584.489C192.488 587.293 196.127 591.097 198.549 595.902C201.014 600.669 202.029 606.17 201.594 612.405C201.156 618.681 199.366 623.965 196.227 628.257C193.131 632.51 188.926 635.599 183.613 637.525C178.299 639.452 172.192 640.174 165.292 639.692L141.912 638.059L143.209 619.48L161.976 620.79C165.093 621.008 167.697 620.814 169.786 620.208C171.877 619.56 173.52 618.464 174.714 616.918C175.953 615.334 176.662 613.253 176.842 610.676C177.025 608.057 176.613 605.878 175.607 604.137C174.645 602.357 173.154 600.979 171.134 600.003C169.114 599.026 166.586 598.432 163.552 598.22L154.262 597.571L149.286 668.835L125.593 667.181L131.898 576.901ZM200.411 672.405L174.537 670.599L155.477 627.729L180.79 629.497L200.411 672.405ZM298.208 633.875C297.532 643.559 295.036 651.78 290.722 658.538C286.452 665.257 280.865 670.192 273.962 673.344C267.101 676.499 259.534 677.787 251.263 677.21C242.991 676.632 235.677 674.304 229.321 670.227C222.964 666.149 218.119 660.464 214.786 653.173C211.494 645.884 210.185 637.418 210.858 627.775C211.54 618.007 214.016 609.764 218.286 603.045C222.598 596.329 228.183 591.414 235.042 588.301C241.903 585.146 249.47 583.858 257.741 584.435C266.013 585.013 273.327 587.341 279.683 591.418C286.084 595.457 290.932 601.101 294.227 608.348C297.563 615.598 298.89 624.107 298.208 633.875ZM273.83 632.172C274.216 626.644 273.794 621.916 272.565 617.987C271.377 614.061 269.397 611.02 266.624 608.864C263.895 606.668 260.452 605.425 256.296 605.135C252.139 604.845 248.557 605.597 245.55 607.392C242.545 609.145 240.162 611.882 238.398 615.601C236.676 619.324 235.622 623.949 235.236 629.477C234.85 635.005 235.251 639.732 236.439 643.658C237.668 647.586 239.647 650.648 242.376 652.844C245.107 654.998 248.552 656.22 252.708 656.51C256.865 656.8 260.445 656.069 263.45 654.315C266.498 652.523 268.884 649.766 270.606 646.044C272.369 642.324 273.444 637.7 273.83 632.172ZM384.338 685.249L364.449 683.86L334.369 632.829L333.745 632.785L330.345 681.479L306.653 679.824L312.957 589.544L333.22 590.959L362.811 641.832L363.559 641.884L366.95 593.315L390.643 594.969L384.338 685.249ZM400.182 595.635L478.055 601.073L476.718 620.214L449.472 618.312L444.504 689.451L421.186 687.823L426.154 616.683L398.845 614.776L400.182 595.635ZM527.592 658.789L485.382 655.842L486.632 637.948L528.842 640.896L527.592 658.789ZM545.765 605.802L610.233 610.304L608.896 629.444L568.121 626.597L566.976 642.995L604.447 645.611L603.11 664.752L565.639 662.135L564.489 678.595L605.078 681.43L603.742 700.571L539.461 696.082L545.765 605.802ZM694.084 706.879L674.195 705.491L644.114 654.459L643.491 654.415L640.09 703.109L616.398 701.454L622.703 611.174L642.966 612.589L672.556 663.462L673.304 663.514L676.696 614.945L700.388 616.599L694.084 706.879ZM716.031 708.412L717.441 688.211L741.134 689.866C745.997 690.205 750.063 689.696 753.332 688.337C756.643 686.981 759.257 684.532 761.175 680.99C763.094 677.449 764.267 672.602 764.697 666.45C765.132 660.215 764.646 655.211 763.239 651.437C761.832 647.663 759.54 644.893 756.364 643.126C753.188 641.358 749.085 640.299 744.055 639.948L720.55 638.307L721.961 618.106L746.588 619.825C755.857 620.473 763.753 622.841 770.276 626.93C776.84 631.023 781.694 636.583 784.837 643.61C788.022 650.641 789.289 658.811 788.639 668.122C787.988 677.433 785.598 685.348 781.467 691.868C777.378 698.39 771.819 703.223 764.792 706.366C757.805 709.512 749.74 710.766 740.596 710.127L716.031 708.412ZM729.997 709.387L706.304 707.733L712.609 617.453L736.301 619.107L729.997 709.387Z" fill="#C7DFFF"/>
<path opacity="0.5" d="M48.574 674.85L111.483 679.243L110.147 698.384L70.9296 695.646L69.7846 712.043L105.136 714.512L103.799 733.653L68.4479 731.184L65.9619 766.785L42.2696 765.13L48.574 674.85ZM120.898 679.901L159.304 682.583C166.038 683.053 171.813 684.688 176.63 687.489C181.488 690.293 185.127 694.097 187.549 698.902C190.014 703.669 191.029 709.17 190.594 715.405C190.156 721.681 188.366 726.965 185.227 731.257C182.131 735.51 177.926 738.599 172.613 740.525C167.299 742.452 161.192 743.174 154.292 742.692L130.912 741.059L132.209 722.48L150.976 723.79C154.093 724.008 156.697 723.814 158.786 723.208C160.877 722.56 162.52 721.464 163.714 719.918C164.953 718.334 165.662 716.253 165.842 713.676C166.025 711.057 165.613 708.878 164.607 707.137C163.645 705.357 162.154 703.979 160.134 703.003C158.114 702.026 155.586 701.432 152.552 701.22L143.262 700.571L138.286 771.835L114.593 770.181L120.898 679.901ZM189.411 775.405L163.537 773.599L144.477 730.729L169.79 732.497L189.411 775.405ZM287.208 736.875C286.532 746.559 284.036 754.78 279.722 761.538C275.452 768.257 269.865 773.192 262.962 776.344C256.101 779.499 248.534 780.787 240.263 780.21C231.991 779.632 224.677 777.304 218.321 773.227C211.964 769.149 207.119 763.464 203.786 756.173C200.494 748.884 199.185 740.418 199.858 730.775C200.54 721.007 203.016 712.764 207.286 706.045C211.598 699.329 217.183 694.414 224.042 691.301C230.903 688.146 238.47 686.858 246.741 687.435C255.013 688.013 262.327 690.341 268.683 694.418C275.084 698.457 279.932 704.101 283.227 711.348C286.563 718.598 287.89 727.107 287.208 736.875ZM262.83 735.172C263.216 729.644 262.794 724.916 261.565 720.987C260.377 717.061 258.397 714.02 255.624 711.864C252.895 709.668 249.452 708.425 245.296 708.135C241.139 707.845 237.557 708.597 234.55 710.392C231.545 712.145 229.162 714.882 227.398 718.601C225.676 722.324 224.622 726.949 224.236 732.477C223.85 738.005 224.251 742.732 225.439 746.658C226.668 750.586 228.647 753.648 231.376 755.844C234.107 757.998 237.552 759.22 241.708 759.51C245.865 759.8 249.445 759.069 252.45 757.315C255.498 755.523 257.884 752.766 259.606 749.044C261.369 745.324 262.444 740.7 262.83 735.172ZM373.338 788.249L353.449 786.86L323.369 735.829L322.745 735.785L319.345 784.479L295.653 782.824L301.957 692.544L322.22 693.959L351.811 744.832L352.559 744.884L355.95 696.315L379.643 697.969L373.338 788.249ZM389.182 698.635L467.055 704.073L465.718 723.214L438.472 721.312L433.504 792.451L410.186 790.823L415.154 719.683L387.845 717.776L389.182 698.635ZM516.592 761.789L474.382 758.842L475.632 740.948L517.842 743.896L516.592 761.789ZM534.765 708.802L599.233 713.304L597.896 732.444L557.121 729.597L555.976 745.995L593.447 748.611L592.11 767.752L554.639 765.135L553.489 781.595L594.078 784.43L592.742 803.571L528.461 799.082L534.765 708.802ZM683.084 809.879L663.195 808.491L633.114 757.459L632.491 757.415L629.09 806.109L605.398 804.454L611.703 714.174L631.966 715.589L661.556 766.462L662.304 766.514L665.696 717.945L689.388 719.599L683.084 809.879ZM705.031 811.412L706.441 791.211L730.134 792.866C734.997 793.205 739.063 792.696 742.332 791.337C745.643 789.981 748.257 787.532 750.175 783.99C752.094 780.449 753.267 775.602 753.697 769.45C754.132 763.215 753.646 758.211 752.239 754.437C750.832 750.663 748.54 747.893 745.364 746.126C742.188 744.358 738.085 743.299 733.055 742.948L709.55 741.307L710.961 721.106L735.588 722.825C744.857 723.473 752.753 725.841 759.276 729.93C765.84 734.023 770.694 739.583 773.837 746.61C777.022 753.641 778.289 761.811 777.639 771.122C776.988 780.433 774.598 788.348 770.467 794.868C766.378 801.39 760.819 806.223 753.792 809.366C746.805 812.512 738.74 813.766 729.596 813.127L705.031 811.412ZM718.997 812.387L695.304 810.733L701.609 720.453L725.301 722.107L718.997 812.387Z" fill="#DDECFF"/>
<path fill-rule="evenodd" clip-rule="evenodd" d="M1954.17 23.2795L1966.7 -83.4139L1509.85 68.3026L1497.31 174.996L1954.17 23.2795ZM1976.48 -166.619L1967.99 -94.3788L1511.14 57.3378L1523.67 -49.3556L1902.84 -175.272L1976.48 -166.619ZM1879.4 -178.026L1543.43 -217.501L1524.96 -60.3205L1879.4 -178.026ZM1497.7 185.404L1725.76 212.199L1940.34 140.938L1952.88 34.2444L1497.7 185.404ZM1929.16 236.099L1749.19 214.953L1939.05 151.903L1929.16 236.099Z" fill="#C7DFFF"/>
<path opacity="0.5" d="M1161.04 514.48L1199.78 512.106C1206.48 511.696 1212.23 512.282 1217.05 513.866C1221.9 515.405 1225.61 517.786 1228.19 521.01C1230.81 524.231 1232.26 528.17 1232.55 532.828C1232.75 536.113 1232.21 539.173 1230.92 542.007C1229.63 544.8 1227.73 547.212 1225.22 549.244C1222.76 551.232 1219.82 552.685 1216.41 553.604L1216.47 554.477C1220.34 554.407 1223.92 555.189 1227.19 556.825C1230.51 558.459 1233.18 560.821 1235.2 563.911C1237.23 567.001 1238.37 570.626 1238.62 574.785C1238.93 579.692 1237.91 584.159 1235.56 588.185C1233.26 592.166 1229.79 595.406 1225.14 597.903C1220.53 600.398 1215.01 601.843 1208.56 602.238L1166.58 604.811L1161.04 514.48ZM1201.16 583.593C1203.98 583.42 1206.31 582.902 1208.14 582.038C1210 581.173 1211.35 580.005 1212.18 578.535C1213.05 577.062 1213.42 575.307 1213.3 573.269C1213.17 571.148 1212.56 569.348 1211.46 567.871C1210.41 566.349 1208.92 565.25 1207 564.575C1205.13 563.897 1202.9 563.637 1200.32 563.795L1187.9 564.556L1189.12 584.331L1201.16 583.593ZM1197.67 549.117C1199.87 548.982 1201.8 548.488 1203.46 547.635C1205.16 546.779 1206.45 545.657 1207.32 544.267C1208.2 542.836 1208.58 541.185 1208.46 539.314C1208.34 537.4 1207.77 535.808 1206.73 534.536C1205.73 533.261 1204.38 532.342 1202.68 531.778C1201.01 531.171 1199.1 530.933 1196.93 531.066L1185.89 531.742L1187 549.771L1197.67 549.117ZM1245.99 599.944L1270.46 507.774L1302.71 505.798L1338.25 594.289L1312.62 595.861L1288.48 531.028L1287.73 531.074L1271.63 598.372L1245.99 599.944ZM1314.55 559.925L1315.64 577.829L1266.05 580.869L1264.95 562.965L1314.55 559.925ZM1399.03 533.52C1398.64 530.705 1397.72 528.278 1396.26 526.238C1394.84 524.196 1392.91 522.686 1390.47 521.709C1388.03 520.69 1385.25 520.276 1382.13 520.467C1377.97 520.722 1374.5 521.957 1371.72 524.173C1368.93 526.39 1366.86 529.48 1365.52 533.445C1364.22 537.365 1363.73 542.008 1364.06 547.373C1364.4 552.987 1365.46 557.64 1367.23 561.33C1369.04 565.018 1371.47 567.77 1374.5 569.588C1377.53 571.364 1381.04 572.13 1385.03 571.886C1388.11 571.697 1390.74 571.014 1392.92 569.837C1395.14 568.615 1396.88 567.006 1398.14 565.009C1399.43 562.967 1400.23 560.602 1400.52 557.912L1424.68 556.682C1424.55 562.158 1423.01 567.554 1420.03 572.871C1417.06 578.188 1412.66 582.695 1406.84 586.391C1401.05 590.044 1394.06 592.121 1385.87 592.623C1377.55 593.133 1369.99 591.78 1363.2 588.565C1356.41 585.349 1350.93 580.363 1346.76 573.605C1342.62 566.804 1340.26 558.558 1339.67 548.868C1339.07 539.094 1340.45 530.598 1343.8 523.379C1347.2 516.158 1352.05 510.559 1358.36 506.582C1364.67 502.564 1371.94 500.302 1380.18 499.798C1387.71 499.336 1394.51 500.297 1400.58 502.68C1406.65 505.021 1411.66 508.701 1415.6 513.72C1419.54 518.738 1422.06 524.845 1423.17 532.041L1399.03 533.52ZM1432.53 497.841L1456.24 496.388L1458.5 533.382L1459.75 533.305L1485.37 494.603L1513.19 492.898L1484.65 535.035L1519.41 583.186L1490.97 584.93L1467.96 551.837L1460.32 563.076L1461.77 586.719L1438.07 588.172L1432.53 497.841ZM1567.66 543.786L1525.42 546.375L1524.33 528.471L1566.56 525.882L1567.66 543.786ZM1578.76 488.879L1643.26 484.926L1644.43 504.078L1603.64 506.578L1604.64 522.985L1642.13 520.687L1643.31 539.839L1605.82 542.136L1606.82 558.606L1647.44 556.117L1648.61 575.268L1584.29 579.21L1578.76 488.879ZM1739 569.728L1719.1 570.948L1682.62 524.28L1681.99 524.318L1684.98 573.039L1661.27 574.492L1655.74 484.161L1676.01 482.919L1711.99 529.493L1712.74 529.447L1709.76 480.851L1733.47 479.398L1739 569.728ZM1760.96 568.382L1759.72 548.17L1783.43 546.717C1788.29 546.419 1792.26 545.383 1795.32 543.609C1798.43 541.832 1800.7 539.063 1802.14 535.301C1803.58 531.54 1804.11 526.581 1803.73 520.426C1803.35 514.188 1802.22 509.29 1800.33 505.732C1798.44 502.174 1795.81 499.726 1792.43 498.389C1789.05 497.052 1784.84 496.537 1779.81 496.845L1756.29 498.287L1755.05 478.075L1779.69 476.565C1788.97 475.996 1797.1 477.313 1804.1 480.516C1811.15 483.716 1816.68 488.595 1820.72 495.152C1824.79 501.707 1827.12 509.642 1827.69 518.958C1828.26 528.274 1826.92 536.433 1823.68 543.437C1820.48 550.437 1815.6 555.954 1809.04 559.988C1802.52 564.019 1794.69 566.315 1785.54 566.876L1760.96 568.382ZM1774.94 567.526L1751.23 568.979L1745.69 478.648L1769.4 477.195L1774.94 567.526Z" fill="#C0CEFF"/>
<path opacity="0.5" d="M1170.04 625.481L1208.78 623.106C1215.48 622.696 1221.23 623.282 1226.05 624.866C1230.9 626.405 1234.61 628.787 1237.19 632.01C1239.81 635.231 1241.26 639.17 1241.55 643.828C1241.75 647.114 1241.21 650.173 1239.92 653.007C1238.63 655.8 1236.73 658.212 1234.22 660.244C1231.76 662.232 1228.82 663.685 1225.41 664.604L1225.47 665.477C1229.34 665.407 1232.92 666.189 1236.19 667.826C1239.51 669.459 1242.18 671.821 1244.2 674.911C1246.23 678.001 1247.37 681.626 1247.62 685.785C1247.93 690.692 1246.91 695.159 1244.56 699.185C1242.26 703.166 1238.79 706.406 1234.14 708.903C1229.53 711.398 1224.01 712.843 1217.56 713.238L1175.58 715.811L1170.04 625.481ZM1210.16 694.593C1212.98 694.42 1215.31 693.902 1217.14 693.039C1219 692.173 1220.35 691.005 1221.18 689.535C1222.05 688.062 1222.42 686.307 1222.3 684.269C1222.17 682.148 1221.56 680.349 1220.46 678.871C1219.41 677.349 1217.92 676.251 1216 675.575C1214.13 674.897 1211.9 674.637 1209.32 674.795L1196.9 675.556L1198.12 695.331L1210.16 694.593ZM1206.67 660.117C1208.87 659.982 1210.8 659.488 1212.46 658.635C1214.16 657.779 1215.45 656.657 1216.32 655.267C1217.2 653.836 1217.58 652.185 1217.46 650.314C1217.34 648.401 1216.77 646.808 1215.73 645.536C1214.73 644.261 1213.38 643.342 1211.68 642.778C1210.01 642.171 1208.1 641.933 1205.93 642.066L1194.89 642.743L1196 660.771L1206.67 660.117ZM1254.99 710.944L1279.46 618.774L1311.71 616.798L1347.25 705.289L1321.62 706.861L1297.48 642.028L1296.73 642.074L1280.63 709.373L1254.99 710.944ZM1323.55 670.925L1324.64 688.829L1275.05 691.869L1273.95 673.965L1323.55 670.925ZM1408.03 644.52C1407.64 641.705 1406.72 639.278 1405.26 637.238C1403.84 635.196 1401.91 633.686 1399.47 632.709C1397.03 631.69 1394.25 631.276 1391.13 631.467C1386.97 631.722 1383.5 632.957 1380.72 635.174C1377.93 637.39 1375.86 640.48 1374.52 644.445C1373.22 648.365 1372.73 653.008 1373.06 658.373C1373.4 663.987 1374.46 668.64 1376.23 672.33C1378.04 676.018 1380.47 678.77 1383.5 680.588C1386.53 682.365 1390.04 683.13 1394.03 682.886C1397.11 682.697 1399.74 682.014 1401.92 680.837C1404.14 679.615 1405.88 678.006 1407.14 676.009C1408.43 673.967 1409.23 671.602 1409.52 668.912L1433.68 667.682C1433.55 673.158 1432.01 678.555 1429.03 683.871C1426.06 689.188 1421.66 693.695 1415.84 697.392C1410.05 701.044 1403.06 703.121 1394.87 703.624C1386.55 704.133 1378.99 702.78 1372.2 699.565C1365.41 696.349 1359.93 691.363 1355.76 684.606C1351.62 677.804 1349.26 669.558 1348.67 659.868C1348.07 650.095 1349.45 641.598 1352.8 634.38C1356.2 627.158 1361.05 621.559 1367.36 617.582C1373.67 613.564 1380.94 611.302 1389.18 610.798C1396.71 610.336 1403.51 611.297 1409.58 613.68C1415.65 616.021 1420.66 619.701 1424.6 624.72C1428.54 629.738 1431.06 635.845 1432.17 643.041L1408.03 644.52ZM1441.53 608.841L1465.24 607.389L1467.5 644.382L1468.75 644.305L1494.37 605.603L1522.19 603.898L1493.65 646.035L1528.41 694.186L1499.97 695.93L1476.96 662.838L1469.32 674.076L1470.77 697.719L1447.07 699.172L1441.53 608.841ZM1576.66 654.786L1534.42 657.375L1533.33 639.471L1575.56 636.883L1576.66 654.786ZM1587.76 599.88L1652.26 595.926L1653.43 615.078L1612.64 617.578L1613.64 633.985L1651.13 631.687L1652.31 650.839L1614.82 653.137L1615.82 669.606L1656.44 667.117L1657.61 686.268L1593.29 690.21L1587.76 599.88ZM1748 680.728L1728.1 681.948L1691.62 635.28L1690.99 635.318L1693.98 684.039L1670.27 685.492L1664.74 595.162L1685.01 593.919L1720.99 640.493L1721.74 640.447L1718.76 591.851L1742.47 590.398L1748 680.728ZM1769.96 679.382L1768.72 659.17L1792.43 657.718C1797.29 657.419 1801.26 656.383 1804.32 654.609C1807.43 652.832 1809.7 650.063 1811.14 646.302C1812.58 642.54 1813.11 637.581 1812.73 631.426C1812.35 625.188 1811.22 620.29 1809.33 616.732C1807.44 613.174 1804.81 610.727 1801.43 609.389C1798.05 608.052 1793.84 607.537 1788.81 607.846L1765.29 609.287L1764.05 589.075L1788.69 587.565C1797.97 586.996 1806.1 588.313 1813.1 591.516C1820.15 594.716 1825.68 599.595 1829.72 606.152C1833.79 612.707 1836.12 620.642 1836.69 629.958C1837.26 639.274 1835.92 647.433 1832.68 654.437C1829.48 661.437 1824.6 666.955 1818.04 670.988C1811.52 675.019 1803.69 677.315 1794.54 677.876L1769.96 679.382ZM1783.94 678.526L1760.23 679.979L1754.69 589.648L1778.4 588.196L1783.94 678.526Z" fill="#C7DFFF"/>
<path opacity="0.5" d="M901.182 523.103L877.352 524.563L873.162 456.191L872.663 456.222L853.563 469.478L852.316 449.141L873.687 434.118L895.646 432.772L901.182 523.103ZM956.884 473.602C956.546 471.494 955.466 469.89 953.646 468.791C951.823 467.651 949.622 467.16 947.043 467.318C945.588 467.407 944.247 467.677 943.023 468.128C941.837 468.534 940.914 469.133 940.252 469.925C939.589 470.676 939.286 471.529 939.345 472.486C939.331 473.614 939.87 474.582 940.963 475.392C942.098 476.199 943.927 476.755 946.451 477.06L960.265 478.718C967.245 479.542 972.492 481.37 976.005 484.203C979.558 486.99 981.485 490.859 981.789 495.808C982.077 500.507 980.937 504.731 978.37 508.478C975.8 512.184 972.142 515.163 967.396 517.416C962.689 519.625 957.195 520.922 950.916 521.307C944.261 521.715 938.444 521.132 933.463 519.559C928.48 517.944 924.491 515.517 921.496 512.277C918.542 509.035 916.674 505.121 915.892 500.535L939.348 499.098C939.935 501.191 941.16 502.786 943.022 503.882C944.926 504.976 947.292 505.436 950.12 505.263C951.742 505.164 953.145 504.89 954.328 504.441C955.553 503.991 956.497 503.39 957.16 502.64C957.824 501.889 958.125 501.015 958.064 500.017C957.98 498.645 957.269 497.603 955.931 496.892C954.591 496.139 952.554 495.596 949.82 495.263L937.775 493.872C930.839 493.086 925.543 491.136 921.888 488.02C918.229 484.863 916.259 480.642 915.977 475.358C915.689 470.659 916.672 466.612 918.927 463.217C921.221 459.779 924.645 457.064 929.198 455.074C933.752 453.083 939.231 451.892 945.635 451.499C951.998 451.109 957.565 451.686 962.335 453.231C967.144 454.731 970.943 457.107 973.73 460.36C976.518 463.612 978.159 467.581 978.655 472.268L956.884 473.602ZM1029.52 464.392L985.539 467.087L984.491 449.994L1028.47 447.299L1029.52 464.392ZM1015.75 431.798L1019.56 494.056C1019.63 495.096 1019.85 495.938 1020.22 496.583C1020.64 497.226 1021.21 497.692 1021.93 497.981C1022.66 498.229 1023.58 498.339 1024.71 498.312C1026.25 498.301 1028.85 498.038 1032.49 497.522L1033.57 515.114C1030.4 515.893 1026.7 516.412 1022.45 516.672C1016.92 517.011 1012.24 516.567 1008.41 515.341C1004.62 514.112 1001.67 512.059 999.578 509.182C997.478 506.264 996.329 502.493 996.129 497.872L992.168 433.243L1015.75 431.798Z" fill="#A6B9FF"/>
<path opacity="0.5" d="M815.396 802.329L851.002 776.62C853.823 774.613 856.042 772.854 857.657 771.344C859.313 769.836 860.621 768.24 861.581 766.556C862.585 764.833 863.163 762.933 863.316 760.855C863.484 758.57 863.113 756.516 862.202 754.694C861.291 752.873 859.975 751.46 858.252 750.456C856.533 749.41 854.509 748.802 852.182 748.631C849.897 748.463 847.805 748.79 845.906 749.611C844.052 750.394 842.58 751.664 841.49 753.423C840.441 755.184 839.823 757.332 839.637 759.867L817.011 758.203C817.463 752.053 819.271 746.776 822.436 742.371C825.645 737.928 829.915 734.69 835.245 732.659C840.578 730.586 846.694 729.803 853.592 730.31C860.614 730.826 866.66 732.42 871.727 735.09C876.837 737.763 880.671 741.304 883.23 745.712C885.833 750.081 886.932 755.029 886.525 760.556C886.26 764.171 885.276 767.608 883.574 770.867C881.914 774.129 879.082 777.702 875.078 781.586C871.077 785.428 865.503 789.927 858.356 795.084L848.616 802.264L848.574 802.825L884.29 805.45L882.893 824.462L814.141 819.408L815.396 802.329ZM917.986 827.041L894.424 825.309L899.4 757.617L921.778 759.262L920.843 771.978L921.466 772.023C923.271 767.936 926.09 764.822 929.924 762.681C933.802 760.501 938.235 759.594 943.221 759.961C947.959 760.309 952.014 761.693 955.387 764.114C958.805 766.496 961.35 769.67 963.022 773.637C964.694 777.603 965.348 782.059 964.985 787.004L961.805 830.262L938.244 828.53L941.066 790.134C941.234 787.849 940.983 785.866 940.313 784.188C939.687 782.471 938.658 781.121 937.226 780.138C935.797 779.114 934.003 778.522 931.842 778.364C929.806 778.214 927.964 778.538 926.318 779.336C924.716 780.096 923.439 781.276 922.486 782.877C921.532 784.478 920.97 786.442 920.799 788.77L917.986 827.041ZM998.641 833.848C993.696 833.484 989.282 831.865 985.399 828.989C981.558 826.116 978.645 821.975 976.662 816.565C974.681 811.113 973.967 804.627 974.52 797.105C975.091 789.335 976.794 782.942 979.627 777.928C982.461 772.914 985.962 769.328 990.132 767.169C994.346 764.972 998.842 764.05 1003.62 764.401C1006.9 764.642 1009.77 765.417 1012.22 766.725C1014.72 768.037 1016.73 769.709 1018.25 771.743C1019.77 773.735 1020.92 775.971 1021.7 778.452L1022.08 778.479L1024.6 744.134L1048.16 745.866L1041.53 836.123L1018.22 834.409L1019.03 823.376L1018.4 823.331C1017.28 825.546 1015.8 827.484 1013.96 829.146C1012.13 830.808 1009.89 832.063 1007.23 832.913C1004.62 833.765 1001.76 834.077 998.641 833.848ZM1008.51 816.337C1010.88 816.511 1012.95 815.994 1014.71 814.787C1016.51 813.541 1017.96 811.684 1019.06 809.216C1020.17 806.749 1020.84 803.853 1021.08 800.528C1021.33 797.121 1021.09 794.137 1020.36 791.576C1019.63 789.016 1018.46 787.029 1016.85 785.615C1015.28 784.205 1013.32 783.413 1010.95 783.239C1008.62 783.068 1006.58 783.565 1004.82 784.731C1003.06 785.897 1001.66 787.695 1000.6 790.124C999.546 792.553 998.893 795.471 998.642 798.879C998.392 802.286 998.611 805.269 999.301 807.826C999.99 810.383 1001.12 812.409 1002.68 813.902C1004.24 815.354 1006.19 816.166 1008.51 816.337Z" fill="#C7DFFF"/>
<path opacity="0.5" d="M1151.04 403.48L1189.78 401.106C1196.48 400.696 1202.23 401.282 1207.05 402.866C1211.9 404.405 1215.61 406.786 1218.19 410.01C1220.81 413.231 1222.26 417.17 1222.55 421.828C1222.75 425.113 1222.21 428.173 1220.92 431.007C1219.63 433.8 1217.73 436.212 1215.22 438.244C1212.76 440.232 1209.82 441.685 1206.41 442.604L1206.47 443.477C1210.34 443.407 1213.92 444.189 1217.19 445.825C1220.51 447.459 1223.18 449.821 1225.2 452.911C1227.23 456.001 1228.37 459.626 1228.62 463.785C1228.93 468.692 1227.91 473.159 1225.56 477.185C1223.26 481.166 1219.79 484.406 1215.14 486.903C1210.53 489.398 1205.01 490.843 1198.56 491.238L1156.58 493.811L1151.04 403.48ZM1191.16 472.593C1193.98 472.42 1196.31 471.902 1198.14 471.038C1200 470.173 1201.35 469.005 1202.18 467.535C1203.05 466.062 1203.42 464.307 1203.3 462.269C1203.17 460.148 1202.56 458.348 1201.46 456.871C1200.41 455.349 1198.92 454.25 1197 453.575C1195.13 452.897 1192.9 452.637 1190.32 452.795L1177.9 453.556L1179.12 473.331L1191.16 472.593ZM1187.67 438.117C1189.87 437.982 1191.8 437.488 1193.46 436.635C1195.16 435.779 1196.45 434.657 1197.32 433.267C1198.2 431.836 1198.58 430.185 1198.46 428.314C1198.34 426.4 1197.77 424.808 1196.73 423.536C1195.73 422.261 1194.38 421.342 1192.68 420.778C1191.01 420.171 1189.1 419.933 1186.93 420.066L1175.89 420.742L1177 438.771L1187.67 438.117ZM1235.99 488.944L1260.46 396.774L1292.71 394.798L1328.25 483.289L1302.62 484.861L1278.48 420.028L1277.73 420.074L1261.63 487.372L1235.99 488.944ZM1304.55 448.925L1305.64 466.829L1256.05 469.869L1254.95 451.965L1304.55 448.925ZM1389.03 422.52C1388.64 419.705 1387.72 417.278 1386.26 415.238C1384.84 413.196 1382.91 411.686 1380.47 410.709C1378.03 409.69 1375.25 409.276 1372.13 409.467C1367.97 409.722 1364.5 410.957 1361.72 413.173C1358.93 415.39 1356.86 418.48 1355.52 422.445C1354.22 426.365 1353.73 431.008 1354.06 436.373C1354.4 441.987 1355.46 446.64 1357.23 450.33C1359.04 454.018 1361.47 456.77 1364.5 458.588C1367.53 460.364 1371.04 461.13 1375.03 460.886C1378.11 460.697 1380.74 460.014 1382.92 458.837C1385.14 457.615 1386.88 456.006 1388.14 454.009C1389.43 451.967 1390.23 449.602 1390.52 446.912L1414.68 445.682C1414.55 451.158 1413.01 456.554 1410.03 461.871C1407.06 467.188 1402.66 471.695 1396.84 475.391C1391.05 479.044 1384.06 481.121 1375.87 481.623C1367.55 482.133 1359.99 480.78 1353.2 477.565C1346.41 474.349 1340.93 469.363 1336.76 462.605C1332.62 455.804 1330.26 447.558 1329.67 437.868C1329.07 428.094 1330.45 419.598 1333.8 412.379C1337.2 405.158 1342.05 399.559 1348.36 395.582C1354.67 391.564 1361.94 389.302 1370.18 388.798C1377.71 388.336 1384.51 389.297 1390.58 391.68C1396.65 394.021 1401.66 397.701 1405.6 402.72C1409.54 407.738 1412.06 413.845 1413.17 421.041L1389.03 422.52ZM1422.53 386.841L1446.24 385.388L1448.5 422.382L1449.75 422.305L1475.37 383.603L1503.19 381.898L1474.65 424.035L1509.41 472.186L1480.97 473.93L1457.96 440.837L1450.32 452.076L1451.77 475.719L1428.07 477.172L1422.53 386.841ZM1557.66 432.786L1515.42 435.375L1514.33 417.471L1556.56 414.882L1557.66 432.786ZM1568.76 377.879L1633.26 373.926L1634.43 393.078L1593.64 395.578L1594.64 411.985L1632.13 409.687L1633.31 428.839L1595.82 431.136L1596.82 447.606L1637.44 445.117L1638.61 464.268L1574.29 468.21L1568.76 377.879ZM1729 458.728L1709.1 459.948L1672.62 413.28L1671.99 413.318L1674.98 462.039L1651.27 463.492L1645.74 373.161L1666.01 371.919L1701.99 418.493L1702.74 418.447L1699.76 369.851L1723.47 368.398L1729 458.728ZM1750.96 457.382L1749.72 437.17L1773.43 435.717C1778.29 435.419 1782.26 434.383 1785.32 432.609C1788.43 430.832 1790.7 428.063 1792.14 424.301C1793.58 420.54 1794.11 415.581 1793.73 409.426C1793.35 403.188 1792.22 398.29 1790.33 394.732C1788.44 391.174 1785.81 388.726 1782.43 387.389C1779.05 386.052 1774.84 385.537 1769.81 385.845L1746.29 387.287L1745.05 367.075L1769.69 365.565C1778.97 364.996 1787.1 366.313 1794.1 369.516C1801.15 372.716 1806.68 377.595 1810.72 384.152C1814.79 390.707 1817.12 398.642 1817.69 407.958C1818.26 417.274 1816.92 425.433 1813.68 432.437C1810.48 439.437 1805.6 444.954 1799.04 448.988C1792.52 453.019 1784.69 455.315 1775.54 455.876L1750.96 457.382ZM1764.94 456.526L1741.23 457.979L1735.69 367.648L1759.4 366.195L1764.94 456.526Z" fill="#C7DFFF"/>
<path opacity="0.5" d="M1142.04 299.481L1180.78 297.106C1187.48 296.696 1193.23 297.282 1198.05 298.866C1202.9 300.405 1206.61 302.787 1209.19 306.01C1211.81 309.231 1213.26 313.17 1213.55 317.828C1213.75 321.114 1213.21 324.173 1211.92 327.007C1210.63 329.8 1208.73 332.212 1206.22 334.244C1203.76 336.232 1200.82 337.685 1197.41 338.604L1197.47 339.477C1201.34 339.407 1204.92 340.189 1208.19 341.826C1211.51 343.459 1214.18 345.821 1216.2 348.911C1218.23 352.001 1219.37 355.626 1219.62 359.785C1219.93 364.692 1218.91 369.159 1216.56 373.185C1214.26 377.166 1210.79 380.406 1206.14 382.903C1201.53 385.398 1196.01 386.843 1189.56 387.238L1147.58 389.811L1142.04 299.481ZM1182.16 368.593C1184.98 368.42 1187.31 367.902 1189.14 367.039C1191 366.173 1192.35 365.005 1193.18 363.535C1194.05 362.062 1194.42 360.307 1194.3 358.269C1194.17 356.148 1193.56 354.349 1192.46 352.871C1191.41 351.349 1189.92 350.251 1188 349.575C1186.13 348.897 1183.9 348.637 1181.32 348.795L1168.9 349.556L1170.12 369.331L1182.16 368.593ZM1178.67 334.117C1180.87 333.982 1182.8 333.488 1184.46 332.635C1186.16 331.779 1187.45 330.657 1188.32 329.267C1189.2 327.836 1189.58 326.185 1189.46 324.314C1189.34 322.401 1188.77 320.808 1187.73 319.536C1186.73 318.261 1185.38 317.342 1183.68 316.778C1182.01 316.171 1180.1 315.933 1177.93 316.066L1166.89 316.743L1168 334.771L1178.67 334.117ZM1226.99 384.944L1251.46 292.774L1283.71 290.798L1319.25 379.289L1293.62 380.861L1269.48 316.028L1268.73 316.074L1252.63 383.373L1226.99 384.944ZM1295.55 344.925L1296.64 362.829L1247.05 365.869L1245.95 347.965L1295.55 344.925ZM1380.03 318.52C1379.64 315.705 1378.72 313.278 1377.26 311.238C1375.84 309.196 1373.91 307.686 1371.47 306.709C1369.03 305.69 1366.25 305.276 1363.13 305.467C1358.97 305.722 1355.5 306.957 1352.72 309.174C1349.93 311.39 1347.86 314.48 1346.52 318.445C1345.22 322.365 1344.73 327.008 1345.06 332.373C1345.4 337.987 1346.46 342.64 1348.23 346.33C1350.04 350.018 1352.47 352.77 1355.5 354.588C1358.53 356.365 1362.04 357.13 1366.03 356.886C1369.11 356.697 1371.74 356.014 1373.92 354.837C1376.14 353.615 1377.88 352.006 1379.14 350.009C1380.43 347.967 1381.23 345.602 1381.52 342.912L1405.68 341.682C1405.55 347.158 1404.01 352.555 1401.03 357.871C1398.06 363.188 1393.66 367.695 1387.84 371.392C1382.05 375.044 1375.06 377.121 1366.87 377.624C1358.55 378.133 1350.99 376.78 1344.2 373.565C1337.41 370.349 1331.93 365.363 1327.76 358.606C1323.62 351.804 1321.26 343.558 1320.67 333.868C1320.07 324.095 1321.45 315.598 1324.8 308.38C1328.2 301.158 1333.05 295.559 1339.36 291.582C1345.67 287.564 1352.94 285.302 1361.18 284.798C1368.71 284.336 1375.51 285.297 1381.58 287.68C1387.65 290.021 1392.66 293.701 1396.6 298.72C1400.54 303.738 1403.06 309.845 1404.17 317.041L1380.03 318.52ZM1413.53 282.841L1437.24 281.389L1439.5 318.382L1440.75 318.305L1466.37 279.603L1494.19 277.898L1465.65 320.035L1500.41 368.186L1471.97 369.93L1448.96 336.838L1441.32 348.076L1442.77 371.719L1419.07 373.172L1413.53 282.841ZM1548.66 328.786L1506.42 331.375L1505.33 313.471L1547.56 310.883L1548.66 328.786ZM1559.76 273.88L1624.26 269.926L1625.43 289.078L1584.64 291.578L1585.64 307.985L1623.13 305.687L1624.31 324.839L1586.82 327.137L1587.82 343.606L1628.44 341.117L1629.61 360.268L1565.29 364.21L1559.76 273.88ZM1720 354.728L1700.1 355.948L1663.62 309.28L1662.99 309.318L1665.98 358.039L1642.27 359.492L1636.74 269.162L1657.01 267.919L1692.99 314.493L1693.74 314.447L1690.76 265.851L1714.47 264.398L1720 354.728ZM1741.96 353.382L1740.72 333.17L1764.43 331.718C1769.29 331.419 1773.26 330.383 1776.32 328.609C1779.43 326.832 1781.7 324.063 1783.14 320.302C1784.58 316.54 1785.11 311.581 1784.73 305.426C1784.35 299.188 1783.22 294.29 1781.33 290.732C1779.44 287.174 1776.81 284.727 1773.43 283.389C1770.05 282.052 1765.84 281.537 1760.81 281.846L1737.29 283.287L1736.05 263.075L1760.69 261.565C1769.97 260.996 1778.1 262.313 1785.1 265.516C1792.15 268.716 1797.68 273.595 1801.72 280.152C1805.79 286.707 1808.12 294.642 1808.69 303.958C1809.26 313.274 1807.92 321.433 1804.68 328.437C1801.48 335.437 1796.6 340.955 1790.04 344.988C1783.52 349.019 1775.69 351.315 1766.54 351.876L1741.96 353.382ZM1755.94 352.526L1732.23 353.979L1726.69 263.648L1750.4 262.196L1755.94 352.526Z" fill="#DCEBFF"/>
<path opacity="0.5" d="M1179.04 731.481L1217.78 729.106C1224.48 728.696 1230.23 729.282 1235.05 730.866C1239.9 732.405 1243.61 734.787 1246.19 738.01C1248.81 741.231 1250.26 745.17 1250.55 749.828C1250.75 753.114 1250.21 756.173 1248.92 759.007C1247.63 761.8 1245.73 764.212 1243.22 766.244C1240.76 768.232 1237.82 769.685 1234.41 770.604L1234.47 771.477C1238.34 771.407 1241.92 772.189 1245.19 773.826C1248.51 775.459 1251.18 777.821 1253.2 780.911C1255.23 784.001 1256.37 787.626 1256.62 791.785C1256.93 796.692 1255.91 801.159 1253.56 805.185C1251.26 809.166 1247.79 812.406 1243.14 814.903C1238.53 817.398 1233.01 818.843 1226.56 819.238L1184.58 821.811L1179.04 731.481ZM1219.16 800.593C1221.98 800.42 1224.31 799.902 1226.14 799.039C1228 798.173 1229.35 797.005 1230.18 795.535C1231.05 794.062 1231.42 792.307 1231.3 790.269C1231.17 788.148 1230.56 786.349 1229.46 784.871C1228.41 783.349 1226.92 782.251 1225 781.575C1223.13 780.897 1220.9 780.637 1218.32 780.795L1205.9 781.556L1207.12 801.331L1219.16 800.593ZM1215.67 766.117C1217.87 765.982 1219.8 765.488 1221.46 764.635C1223.16 763.779 1224.45 762.657 1225.32 761.267C1226.2 759.836 1226.58 758.185 1226.46 756.314C1226.34 754.401 1225.77 752.808 1224.73 751.536C1223.73 750.261 1222.38 749.342 1220.68 748.778C1219.01 748.171 1217.1 747.933 1214.93 748.066L1203.89 748.743L1205 766.771L1215.67 766.117ZM1263.99 816.944L1288.46 724.774L1320.71 722.798L1356.25 811.289L1330.62 812.861L1306.48 748.028L1305.73 748.074L1289.63 815.373L1263.99 816.944ZM1332.55 776.925L1333.64 794.829L1284.05 797.869L1282.95 779.965L1332.55 776.925ZM1417.03 750.52C1416.64 747.705 1415.72 745.278 1414.26 743.238C1412.84 741.196 1410.91 739.686 1408.47 738.709C1406.03 737.69 1403.25 737.276 1400.13 737.467C1395.97 737.722 1392.5 738.957 1389.72 741.174C1386.93 743.39 1384.86 746.48 1383.52 750.445C1382.22 754.365 1381.73 759.008 1382.06 764.373C1382.4 769.987 1383.46 774.64 1385.23 778.33C1387.04 782.018 1389.47 784.77 1392.5 786.588C1395.53 788.365 1399.04 789.13 1403.03 788.886C1406.11 788.697 1408.74 788.014 1410.92 786.837C1413.14 785.615 1414.88 784.006 1416.14 782.009C1417.43 779.967 1418.23 777.602 1418.52 774.912L1442.68 773.682C1442.55 779.158 1441.01 784.555 1438.03 789.871C1435.06 795.188 1430.66 799.695 1424.84 803.392C1419.05 807.044 1412.06 809.121 1403.87 809.624C1395.55 810.133 1387.99 808.78 1381.2 805.565C1374.41 802.349 1368.93 797.363 1364.76 790.606C1360.62 783.804 1358.26 775.558 1357.67 765.868C1357.07 756.095 1358.45 747.598 1361.8 740.38C1365.2 733.158 1370.05 727.559 1376.36 723.582C1382.67 719.564 1389.94 717.302 1398.18 716.798C1405.71 716.336 1412.51 717.297 1418.58 719.68C1424.65 722.021 1429.66 725.701 1433.6 730.72C1437.54 735.738 1440.06 741.845 1441.17 749.041L1417.03 750.52ZM1450.53 714.841L1474.24 713.389L1476.5 750.382L1477.75 750.305L1503.37 711.603L1531.19 709.898L1502.65 752.035L1537.41 800.186L1508.97 801.93L1485.96 768.838L1478.32 780.076L1479.77 803.719L1456.07 805.172L1450.53 714.841ZM1585.66 760.786L1543.42 763.375L1542.33 745.471L1584.56 742.883L1585.66 760.786ZM1596.76 705.88L1661.26 701.926L1662.43 721.078L1621.64 723.578L1622.64 739.985L1660.13 737.687L1661.31 756.839L1623.82 759.137L1624.82 775.606L1665.44 773.117L1666.61 792.268L1602.29 796.21L1596.76 705.88ZM1757 786.728L1737.1 787.948L1700.62 741.28L1699.99 741.318L1702.98 790.039L1679.27 791.492L1673.74 701.162L1694.01 699.919L1729.99 746.493L1730.74 746.447L1727.76 697.851L1751.47 696.398L1757 786.728ZM1778.96 785.382L1777.72 765.17L1801.43 763.718C1806.29 763.419 1810.26 762.383 1813.32 760.609C1816.43 758.832 1818.7 756.063 1820.14 752.302C1821.58 748.54 1822.11 743.581 1821.73 737.426C1821.35 731.188 1820.22 726.29 1818.33 722.732C1816.44 719.174 1813.81 716.727 1810.43 715.389C1807.05 714.052 1802.84 713.537 1797.81 713.846L1774.29 715.287L1773.05 695.075L1797.69 693.565C1806.97 692.996 1815.1 694.313 1822.1 697.516C1829.15 700.716 1834.68 705.595 1838.72 712.152C1842.79 718.707 1845.12 726.642 1845.69 735.958C1846.26 745.274 1844.92 753.433 1841.68 760.437C1838.48 767.437 1833.6 772.955 1827.04 776.988C1820.52 781.019 1812.69 783.315 1803.54 783.876L1778.96 785.382ZM1792.94 784.526L1769.23 785.979L1763.69 695.648L1787.4 694.196L1792.94 784.526Z" fill="#DCEBFF"/>
<path d="M1043.8 151.648L1062.2 205.45L1063.2 205.512L1087.97 154.382L1117.54 156.212L1111.95 246.539L1088.74 245.103L1092.03 191.954L1091.28 191.908L1067.51 243.1L1053.29 242.22L1036.03 188.238L1035.28 188.191L1031.97 241.589L1008.77 240.153L1014.36 149.826L1043.8 151.648ZM1129.76 156.968L1194.26 160.96L1193.08 180.111L1152.28 177.586L1151.27 193.992L1188.76 196.313L1187.57 215.464L1150.08 213.143L1149.06 229.612L1189.67 232.125L1188.49 251.276L1124.17 247.295L1129.76 156.968ZM1236.18 163.555L1254.58 217.357L1255.58 217.418L1280.35 166.288L1309.92 168.118L1304.33 258.445L1281.12 257.009L1284.41 203.861L1283.66 203.815L1259.89 255.006L1245.67 254.126L1228.41 200.144L1227.66 200.098L1224.36 253.496L1201.15 252.06L1206.74 161.732L1236.18 163.555ZM1322.14 168.875L1360.88 171.272C1367.58 171.687 1373.22 172.975 1377.8 175.137C1382.43 177.261 1385.82 180.08 1387.99 183.595C1390.19 187.113 1391.15 191.201 1390.86 195.859C1390.66 199.144 1389.74 202.114 1388.12 204.769C1386.49 207.382 1384.31 209.543 1381.58 211.252C1378.89 212.922 1375.79 214.004 1372.3 214.498L1372.24 215.371C1376.1 215.777 1379.55 216.992 1382.6 219.018C1385.69 221.046 1388.05 223.717 1389.68 227.033C1391.31 230.348 1392 234.085 1391.74 238.244C1391.44 243.151 1389.88 247.459 1387.06 251.167C1384.29 254.836 1380.44 257.625 1375.52 259.533C1370.64 261.443 1364.98 262.199 1358.54 261.8L1316.55 259.202L1322.14 168.875ZM1353.48 242.388C1356.3 242.563 1358.68 242.334 1360.59 241.702C1362.55 241.071 1364.03 240.078 1365.04 238.72C1366.08 237.366 1366.67 235.669 1366.79 233.632C1366.92 231.511 1366.54 229.65 1365.63 228.049C1364.78 226.41 1363.43 225.137 1361.61 224.231C1359.83 223.328 1357.65 222.796 1355.07 222.637L1342.66 221.868L1341.44 241.643L1353.48 242.388ZM1354.24 207.744C1356.45 207.881 1358.42 207.627 1360.18 206.984C1361.97 206.344 1363.38 205.388 1364.42 204.116C1365.46 202.803 1366.04 201.211 1366.16 199.339C1366.28 197.426 1365.9 195.775 1365.03 194.385C1364.19 192.998 1362.97 191.92 1361.34 191.151C1359.76 190.344 1357.89 189.873 1355.73 189.74L1344.69 189.056L1343.57 207.084L1354.24 207.744ZM1404.86 173.994L1469.36 177.986L1468.18 197.137L1427.38 194.612L1426.36 211.018L1463.86 213.339L1462.67 232.49L1425.18 230.169L1424.16 246.638L1464.77 249.151L1463.58 268.302L1399.27 264.321L1404.86 173.994ZM1481.84 178.758L1520.26 181.137C1527 181.554 1532.79 183.143 1537.63 185.906C1542.51 188.671 1546.18 192.447 1548.64 197.233C1551.14 201.98 1552.2 207.472 1551.81 213.71C1551.42 219.99 1549.68 225.288 1546.57 229.604C1543.51 233.882 1539.33 237.004 1534.03 238.973C1528.73 240.941 1522.63 241.711 1515.73 241.284L1492.34 239.836L1493.49 221.247L1512.26 222.409C1515.38 222.602 1517.98 222.387 1520.07 221.765C1522.15 221.101 1523.79 219.991 1524.97 218.436C1526.2 216.842 1526.89 214.756 1527.05 212.178C1527.21 209.558 1526.78 207.381 1525.76 205.648C1524.79 203.876 1523.28 202.51 1521.26 201.549C1519.23 200.589 1516.7 200.015 1513.66 199.827L1504.37 199.252L1499.95 270.553L1476.25 269.086L1481.84 178.758ZM1551.1 273.719L1525.22 272.116L1505.82 229.399L1531.15 230.966L1551.1 273.719ZM1611.49 214.773C1611.45 212.725 1610.99 210.944 1610.13 209.429C1609.26 207.914 1607.93 206.747 1606.15 205.927C1604.41 205.068 1602.16 204.553 1599.42 204.383C1596.92 204.229 1594.8 204.411 1593.06 204.929C1591.36 205.45 1590.03 206.245 1589.09 207.313C1588.19 208.343 1587.7 209.565 1587.61 210.979C1587.39 213.261 1588.23 215.15 1590.14 216.646C1592.05 218.142 1595.16 219.545 1599.46 220.855L1606.92 222.819C1616.4 225.493 1623.24 229.277 1627.44 234.171C1631.69 239.026 1633.64 245.012 1633.28 252.129C1632.92 257.992 1631.13 262.892 1627.93 266.826C1624.76 270.721 1620.39 273.602 1614.81 275.469C1609.27 277.297 1602.69 277.976 1595.08 277.505C1587.22 277.018 1580.47 275.411 1574.84 272.683C1569.21 269.955 1564.98 266.103 1562.15 261.127C1559.33 256.11 1558.08 249.979 1558.41 242.736L1581.11 244.141C1581.11 246.896 1581.69 249.291 1582.86 251.325C1584.03 253.318 1585.73 254.884 1587.96 256.024C1590.18 257.122 1592.86 257.767 1595.98 257.96C1598.64 258.125 1600.93 257.912 1602.84 257.321C1604.76 256.73 1606.23 255.861 1607.26 254.714C1608.33 253.569 1608.92 252.207 1609.02 250.627C1609.11 249.13 1608.73 247.812 1607.88 246.674C1607.04 245.536 1605.62 244.489 1603.63 243.531C1601.65 242.531 1599.02 241.575 1595.73 240.662L1586.75 238.04C1578.58 235.781 1572.42 232.457 1568.27 228.067C1564.16 223.638 1562.32 217.992 1562.74 211.13C1563.09 205.516 1564.94 200.663 1568.28 196.57C1571.62 192.435 1576.09 189.351 1581.69 187.318C1587.33 185.245 1593.66 184.427 1600.69 184.862C1607.84 185.304 1613.98 186.895 1619.12 189.634C1624.29 192.334 1628.2 195.978 1630.84 200.567C1633.48 205.155 1634.62 210.36 1634.26 216.183L1611.49 214.773Z" fill="url(#paint0_linear_683_194)"/>
<rect x="974.498" y="130.825" width="715.278" height="128.037" transform="rotate(3.54101 974.498 130.825)" stroke="#8EA6FF" stroke-width="3"/>
<mask id="path-16-inside-1_683_194" fill="white">
<path fill-rule="evenodd" clip-rule="evenodd" d="M1281.43 148.264L1157.1 140.573L1157.1 140.573L973.837 129.235L973.088 141.345L1139.99 150.802L1159.48 142.341L1281.33 149.879L1281.43 148.264Z"/>
</mask>
<path fill-rule="evenodd" clip-rule="evenodd" d="M1281.43 148.264L1157.1 140.573L1157.1 140.573L973.837 129.235L973.088 141.345L1139.99 150.802L1159.48 142.341L1281.33 149.879L1281.43 148.264Z" fill="#8EA6FF"/>
<path d="M1157.1 140.573L1157.16 139.575L1156.16 139.513L1156.1 140.511L1157.1 140.573ZM1281.43 148.264L1282.43 148.326L1282.49 147.328L1281.49 147.266L1281.43 148.264ZM1157.1 140.573L1157.04 141.571L1158.04 141.633L1158.1 140.634L1157.1 140.573ZM973.837 129.235L973.899 128.237L972.901 128.176L972.839 129.174L973.837 129.235ZM973.088 141.345L972.09 141.284L972.028 142.287L973.031 142.344L973.088 141.345ZM1139.99 150.802L1139.93 151.8L1140.17 151.814L1140.38 151.719L1139.99 150.802ZM1159.48 142.341L1159.54 141.343L1159.3 141.328L1159.08 141.424L1159.48 142.341ZM1281.33 149.879L1281.27 150.877L1282.27 150.939L1282.33 149.94L1281.33 149.879ZM1157.04 141.571L1281.37 149.262L1281.49 147.266L1157.16 139.575L1157.04 141.571ZM1158.1 140.634L1158.1 140.634L1156.1 140.511L1156.1 140.511L1158.1 140.634ZM973.775 130.233L1157.04 141.571L1157.16 139.575L973.899 128.237L973.775 130.233ZM974.086 141.407L974.835 129.297L972.839 129.174L972.09 141.284L974.086 141.407ZM1140.04 149.804L973.144 140.347L973.031 142.344L1139.93 151.8L1140.04 149.804ZM1159.08 141.424L1139.59 149.885L1140.38 151.719L1159.88 143.258L1159.08 141.424ZM1281.39 148.881L1159.54 141.343L1159.42 143.339L1281.27 150.877L1281.39 148.881ZM1280.43 148.202L1280.33 149.817L1282.33 149.94L1282.43 148.326L1280.43 148.202Z" fill="#8EA6FF" mask="url(#path-16-inside-1_683_194)"/>
<path d="M1016.04 263.883C1015.4 274.247 1011.7 284.188 1005.41 292.449C999.119 300.709 990.519 306.919 980.699 310.293C970.879 313.667 960.279 314.053 950.24 311.402C940.2 308.751 931.172 303.183 924.297 295.402C917.422 287.62 913.009 277.974 911.616 267.685C910.223 257.395 911.913 246.924 916.471 237.594C921.029 228.265 928.252 220.496 937.225 215.272C946.198 210.047 956.52 207.6 966.883 208.242L966.475 214.833C957.415 214.273 948.393 216.411 940.548 220.979C932.704 225.546 926.39 232.337 922.405 240.493C918.42 248.649 916.943 257.804 918.161 266.799C919.378 275.794 923.236 284.226 929.246 291.029C935.256 297.832 943.149 302.699 951.925 305.017C960.702 307.334 969.969 306.997 978.554 304.047C987.138 301.098 994.656 295.669 1000.16 288.447C1005.65 281.226 1008.89 272.535 1009.45 263.475L1016.04 263.883Z" fill="#8EA6FF"/>
<path fill-rule="evenodd" clip-rule="evenodd" d="M901.335 185L941.541 187.148L940.231 211.667C937.91 212.604 935.649 213.71 933.468 214.98C924.494 220.204 917.272 227.973 912.714 237.302C908.155 246.632 906.466 257.103 907.859 267.393C909.252 277.682 913.665 287.328 920.54 295.11C924.706 299.825 929.662 303.728 935.156 306.661L933.038 346.298L966.543 348.088L965.379 369.866L931.874 368.076L930.979 384.829L890.773 382.681L891.668 365.928L776.29 359.763L773.142 363.206L762.218 361.149L671.12 461.981L673.661 472.013L651.135 496.651L636 481.631L768.862 337.526L892.832 344.15L901.335 185Z" fill="#A6B9FF"/>
<path fill-rule="evenodd" clip-rule="evenodd" d="M671.674 361.224L660.773 360.993L659.91 401.658L659.984 401.659L659.982 401.787L700.647 402.65L700.878 391.75L671.039 391.116L671.674 361.224Z" fill="#8EA6FF"/>
<path fill-rule="evenodd" clip-rule="evenodd" d="M689.733 340.941L678.832 340.71L677.969 381.374L678.044 381.376L678.041 381.504L718.706 382.367L718.938 371.466L689.099 370.833L689.733 340.941Z" fill="#4D74FF"/>
<path fill-rule="evenodd" clip-rule="evenodd" d="M633.901 399.488L623 399.257L622.137 439.922L622.212 439.923L622.209 440.051L662.874 440.914L663.106 430.013L633.267 429.38L633.901 399.488Z" fill="#8EA6FF"/>
<path fill-rule="evenodd" clip-rule="evenodd" d="M651.961 379.205L641.061 378.973L640.198 419.638L640.273 419.64L640.27 419.767L680.935 420.63L681.166 409.73L651.327 409.097L651.961 379.205Z" fill="#4D74FF"/>
<path fill-rule="evenodd" clip-rule="evenodd" d="M1732.65 160.319L1718.37 138.025L1693.35 154.053L1677.32 129.028L1655.02 143.308L1671.05 168.332L1646.03 184.36L1660.31 206.655L1685.33 190.627L1701.36 215.652L1723.65 201.372L1707.63 176.347L1732.65 160.319Z" fill="#8EA6FF"/>
</g>
<defs>
<linearGradient id="paint0_linear_683_194" x1="1169.27" y1="150.371" x2="1163.83" y2="260.598" gradientUnits="userSpaceOnUse">
<stop stop-color="#1C4EFF"/>
<stop offset="1" stop-color="#4E55FF"/>
</linearGradient>
<clipPath id="clip0_683_194">
<rect width="1920" height="1080" fill="white"/>
</clipPath>
</defs>
</svg>
