<svg width="84" height="84" viewBox="0 0 106 106" fill="none" xmlns="http://www.w3.org/2000/svg">
<path d="M52.4938 105.794C42.1115 105.634 32.0096 102.4 23.4656 96.4991C14.9216 90.5984 8.31923 82.2967 4.49338 72.6437C0.667526 62.9907 -0.209962 52.42 1.97188 42.2683C4.15372 32.1166 9.29688 22.8399 16.751 15.6112C24.2051 8.38252 33.6354 3.52659 43.8493 1.65746C54.0632 -0.211677 64.602 0.989938 74.133 5.11035C83.6639 9.23076 91.759 16.0849 97.3946 24.806C103.03 33.5272 105.953 43.7236 105.794 54.1059L99.1902 54.0045C99.3296 44.9282 96.7744 36.0144 91.8478 28.3904C86.9211 20.7663 79.8443 14.7743 71.5123 11.1722C63.1802 7.57016 53.9672 6.5197 45.0381 8.15371C36.109 9.78772 27.865 14.0328 21.3486 20.3522C14.8321 26.6715 10.3359 34.7813 8.42857 43.656C6.52119 52.5307 7.28829 61.7717 10.6329 70.2104C13.9775 78.6491 19.7493 85.9065 27.2185 91.0649C34.6878 96.2233 43.5189 99.051 52.5952 99.1903L52.4938 105.794Z" fill="#8EA6FF"/>
</svg>
